<?xml version="1.0" encoding="UTF-8" standalone="no"?>
<!-- Created with Inkscape (http://www.inkscape.org/) -->

<svg
   width="210mm"
   height="297mm"
   viewBox="0 0 210 297"
   version="1.1"
   id="svg5"
   inkscape:version="1.2.1 (9c6d41e410, 2022-07-14)"
   sodipodi:docname="FreeSide1.svg"
   inkscape:export-filename="..\..\..\..\Pictures\Juego2D\FreeSide1.png"
   inkscape:export-xdpi="96"
   inkscape:export-ydpi="96"
   xmlns:inkscape="http://www.inkscape.org/namespaces/inkscape"
   xmlns:sodipodi="http://sodipodi.sourceforge.net/DTD/sodipodi-0.dtd"
   xmlns="http://www.w3.org/2000/svg"
   xmlns:svg="http://www.w3.org/2000/svg">
  <sodipodi:namedview
     id="namedview7"
     pagecolor="#ffffff"
     bordercolor="#000000"
     borderopacity="0.25"
     inkscape:showpageshadow="2"
     inkscape:pageopacity="0.0"
     inkscape:pagecheckerboard="0"
     inkscape:deskcolor="#d1d1d1"
     inkscape:document-units="mm"
     showgrid="false"
     inkscape:zoom="0.75544332"
     inkscape:cx="334.24083"
     inkscape:cy="561.25984"
     inkscape:window-width="1920"
     inkscape:window-height="1046"
     inkscape:window-x="-11"
     inkscape:window-y="-11"
     inkscape:window-maximized="1"
     inkscape:current-layer="layer2" />
  <defs
     id="defs2" />
  <g
     inkscape:groupmode="layer"
     id="layer2"
     inkscape:label="Capa 2"
     style="display:inline">
    <rect
       style="fill:#ccff00;stroke-width:0.204681"
       id="rect1880"
       width="108.57311"
       height="56.037735"
       x="40.627357"
       y="124.68396"
       ry="11.207545" />
  </g>
  <rect
     style="fill:#aaccff;stroke-width:0.264583"
     id="rect1665"
     width="144.99765"
     height="57.088444"
     x="25.216982"
     y="105.42098"
     ry="16.110849" />
  <g
     inkscape:label="Capa 1"
     inkscape:groupmode="layer"
     id="layer1"
     style="display:inline">
    <text
       xml:space="preserve"
       style="font-style:normal;font-variant:normal;font-weight:normal;font-stretch:normal;font-size:50.8px;font-family:Chiller;-inkscape-font-specification:Chiller;fill:#2ca05a;stroke-width:0.264583"
       x="42.028297"
       y="138.34317"
       id="text948"><tspan
         sodipodi:role="line"
         id="tspan946"
         style="font-style:normal;font-variant:normal;font-weight:normal;font-stretch:normal;font-family:Chiller;-inkscape-font-specification:Chiller;stroke-width:0.264583"
         x="42.028297"
         y="138.34317">FreeSide</tspan></text>
    <path
       style="fill:#c8ab37;stroke-width:1.32373"
       d="m 151.6003,562.61724 c -3.27681,-3.27681 -4.73842,-8.80645 -2.91005,-11.00949 1.38094,-1.66394 -0.3245,-27.15025 -3.60588,-53.88676 -1.49292,-12.16429 -2.1846,-42.78963 -1.13607,-50.30159 1.5641,-11.20554 3.60542,-15.82934 7.33484,-16.61413 6.36103,-1.33857 11.58125,-4.17189 18.13137,-9.84099 7.05676,-6.10757 7.0206,-6.10553 20.12236,-1.1378 7.92719,3.00571 14.9788,7.81401 14.9788,10.21365 0,3.26217 -4.19392,4.42658 -12.67295,3.51855 -9.89376,-1.05953 -14.22884,0.18518 -22.21826,6.3794 -7.25592,5.62553 -9.79351,12.5832 -10.88594,29.84742 l -0.92103,14.55549 3.16227,0.64921 c 1.73925,0.35707 8.48575,0.9969 14.99223,1.42184 12.55486,0.81996 13.42476,1.05661 12.05154,3.27853 -0.53196,0.86072 -6.52575,1.41179 -15.3554,1.41179 -10.28389,0 -14.48287,0.455 -14.48287,1.56934 0,0.86314 -1.24238,2.8918 -2.76085,4.50813 -2.70535,2.87972 -2.73257,3.44022 -1.35409,27.88357 0.77371,13.71962 2.10704,26.77567 2.96294,29.01343 1.63432,4.27295 0.69619,11.15419 -1.52067,11.15419 -0.71418,0 -2.47471,-1.1762 -3.91229,-2.61378 z"
       id="path1247"
       transform="scale(0.26458333)" />
    <path
       style="fill:#000080;stroke-width:1.32373"
       d="m 525.82565,565.65002 c -0.34131,-0.59447 -1.02647,-3.46357 -1.52258,-6.37577 -0.49611,-2.91219 -1.52689,-7.26975 -2.29063,-9.68345 -1.239,-3.91573 -1.62406,-4.187 -3.57395,-2.5178 -3.45059,2.95387 -13.98037,5.30189 -18.92903,4.22096 -6.00327,-1.31129 -10.29328,-4.91585 -14.64486,-12.30489 -7.11651,-12.08395 -3.22751,-29.04147 7.56149,-32.97102 7.95909,-2.89884 12.47802,-3.4786 15.66147,-2.0093 1.57888,0.72873 4.5088,1.98203 6.51094,2.78513 l 3.64025,1.46016 0.18362,-6.25932 c 0.73951,-25.20887 -0.0464,-47.89827 -1.87098,-54.0145 -1.10252,-3.69582 -1.6907,-8.36165 -1.30707,-10.36851 0.69503,-3.63578 0.72647,-3.64554 8.79554,-2.72989 4.4539,0.50542 8.84261,1.52121 9.75267,2.25731 2.46035,1.99004 2.02605,7.87114 -1.57686,21.35319 -3.17648,11.88636 -4.50731,24.92308 -5.35588,52.46593 -0.23552,7.64452 -0.82372,18.06886 -1.30711,23.16521 -0.48338,5.09634 -0.29138,14.32917 0.42668,20.51739 1.24766,10.75234 1.21089,13.38599 -0.15371,11.00917 z m -7.02505,-30.77207 c 1.15569,-11.72847 -1.31804,-24.88489 -4.89228,-26.01931 -6.59794,-2.0941 -16.37534,4.19059 -20.64248,13.26854 -3.98517,8.47809 -3.63571,12.11252 1.67533,17.42356 4.25754,4.25754 4.99913,4.50066 13.72808,4.50066 h 9.22742 z"
       id="path1249"
       transform="scale(0.26458333)" />
    <path
       style="fill:#000080;stroke-width:1.32373"
       d="m 212.01679,553.75873 c -0.48537,-0.48537 -0.90359,-9.56944 -0.92939,-20.18682 -0.0346,-14.23695 -0.5435,-20.17304 -1.93869,-22.61366 -3.21844,-5.63008 -2.51841,-10.04791 1.88089,-11.87016 5.93225,-2.45722 8.54646,-1.33293 9.93518,4.27279 1.44667,5.83968 2.582,6.02368 10.22123,1.65655 5.76463,-3.29547 14.36517,-4.49381 14.36517,-2.00153 0,0.72805 -1.69766,1.32372 -3.77257,1.32372 -2.07491,0 -6.19248,1.75298 -9.15015,3.89551 -6.40371,4.63882 -8.51589,10.85537 -10.52662,30.98178 -1.30351,13.04743 -2.36959,15.35822 -7.10667,15.40403 -1.15274,0.0111 -2.49302,-0.37685 -2.97838,-0.86221 z"
       id="path1251"
       transform="scale(0.26458333)" />
    <path
       style="fill:#00aad4;stroke-width:1.32373"
       d="m 568.63175,549.91955 c -6.81586,-2.95736 -15.72407,-10.77445 -18.51691,-16.24887 -8.00561,-15.69229 -5.50639,-26.98504 8.07785,-36.49981 5.19833,-3.64105 17.8287,-2.77801 27.09268,1.85125 15.22778,7.60941 17.90246,15.11236 6.7536,18.94503 -10.0978,3.47135 -17.41284,5.19475 -24.82236,5.84808 -11.97636,1.05602 -13.39395,4.26946 -6.09841,13.82414 6.23876,8.17065 13.41361,11.27567 21.68257,9.38347 8.17126,-1.86985 8.73241,-1.01486 1.49044,2.27087 -6.92298,3.14101 -9.61478,3.24859 -15.65946,0.62584 z m 10.55403,-38.31709 c 3.95863,-1.25642 3.16387,-5.38097 -1.40123,-7.27189 -6.70372,-2.77678 -19.83402,1.06002 -19.83402,5.79569 0,1.90104 16.32178,3.03567 21.23525,1.4762 z"
       id="path1322"
       transform="scale(0.26458333)" />
    <path
       style="fill:#00aad4;stroke-width:1.32373"
       d="m 423.50162,536.10905 c 3.77989,-13.43143 3.77359,-13.64994 -0.67793,-23.48171 -1.39737,-3.08628 -2.54067,-6.06743 -2.54067,-6.62478 0,-1.93571 -27.52548,-21.51883 -30.24626,-21.51883 -1.62412,0 -6.25813,-5.46145 -8.64882,-10.19314 -3.02911,-5.99526 -2.67067,-9.35674 1.83552,-17.21389 4.40067,-7.67316 12.85678,-13.62848 19.35143,-13.62848 2.14542,0 7.29038,-1.19135 11.43324,-2.64745 4.14286,-1.4561 8.15615,-2.64745 8.91843,-2.64745 0.76227,0 3.18308,2.82946 5.37958,6.2877 6.85924,10.79941 3.2863,17.33999 -5.45782,9.99101 -3.96147,-3.32941 -5.27097,-3.66934 -12.96997,-3.36688 -9.89454,0.38872 -15.31189,3.00808 -19.7056,9.52791 -5.91045,8.77052 -3.57636,14.43107 9.91833,24.05348 19.447,13.86672 22.43326,17.42677 27.43152,32.70228 2.19232,6.7001 2.19269,7.36143 0.007,13.23726 -2.55716,6.87572 -5.57251,11.0098 -4.02839,5.52297 z"
       id="path1324"
       transform="scale(0.26458333)" />
    <path
       style="fill:#aa00d4;stroke-width:1.32373"
       d="m 276.18538,549.96037 c -8.64183,-3.75217 -16.7987,-11.92444 -19.84348,-19.88093 -5.01948,-13.11673 -2.86739,-23.06169 6.64432,-30.70379 4.73699,-3.8059 6.29233,-4.30199 13.48474,-4.30107 6.23376,8.1e-4 10.03503,0.90222 16.29678,3.86454 9.83061,4.65068 13.67484,8.23372 13.67484,12.74572 0,2.68639 -1.14657,3.89448 -5.62584,5.92769 -3.09421,1.40451 -6.89336,2.56674 -8.44256,2.58273 -1.5492,0.016 -4.9552,0.92259 -7.56891,2.01466 -2.6137,1.09208 -7.67676,1.98559 -11.25124,1.98559 -11.02113,0 -11.90161,5.65253 -2.42007,15.53648 6.90655,7.19969 12.298,9.06594 20.34044,7.04083 8.22252,-2.07046 8.45741,-1.01583 0.53301,2.39315 -7.6679,3.29864 -9.80701,3.40604 -15.82203,0.7944 z m 10.90537,-38.41893 c 4.58885,-1.15173 4.39656,-4.00574 -0.43833,-6.50596 -5.02324,-2.59762 -9.78163,-2.55849 -15.44082,0.12697 -8.89811,4.22243 -7.56242,6.60254 3.91377,6.97406 4.67405,0.15131 10.05847,-0.11646 11.96538,-0.59507 z"
       id="path1464"
       transform="scale(0.26458333)" />
    <path
       style="fill:#aa00d4;stroke-width:1.32373"
       d="m 150.2284,560.92891 c -2.87484,-4.71508 -3.30614,-7.72831 -1.38313,-9.6632 1.22328,-1.23084 -0.69863,-28.59356 -3.7609,-53.54472 -1.49292,-12.16429 -2.1846,-42.78963 -1.13607,-50.30159 1.5641,-11.20554 3.60542,-15.82934 7.33484,-16.61413 6.36103,-1.33857 11.58125,-4.17189 18.13137,-9.84099 7.05676,-6.10757 7.0206,-6.10553 20.12236,-1.1378 7.92719,3.00571 14.9788,7.81401 14.9788,10.21365 0,3.26217 -4.19392,4.42658 -12.67295,3.51855 -9.89376,-1.05953 -14.22884,0.18518 -22.21826,6.3794 -7.25592,5.62553 -9.79351,12.5832 -10.88594,29.84742 l -0.92103,14.55549 3.16227,0.64954 c 1.73925,0.35724 8.45006,0.96138 14.91292,1.34252 12.3343,0.7274 13.54863,1.0635 12.13085,3.35752 -0.53196,0.86072 -6.52575,1.41179 -15.3554,1.41179 -10.28389,0 -14.48287,0.455 -14.48287,1.56934 0,0.86314 -1.24238,2.8918 -2.76085,4.50813 -2.70535,2.87972 -2.73257,3.44022 -1.35409,27.88357 0.77371,13.71962 2.10704,26.77567 2.96294,29.01343 1.84483,4.82331 0.59502,11.15419 -2.20199,11.15419 -1.0889,0 -3.1602,-1.93595 -4.60287,-4.30211 z"
       id="path1466"
       transform="scale(0.26458333)" />
    <path
       style="fill:#ff6600;stroke-width:1.32373"
       d="m 460.0126,557.99735 c -1.61691,-4.25279 -5.3127,-27.91877 -5.3127,-34.01982 0,-2.31363 -1.02621,-5.34054 -2.28045,-6.72646 -1.75307,-1.93713 -2.35916,-5.38647 -2.62078,-14.91542 -0.3155,-11.4912 -0.1422,-12.45842 2.37531,-13.25745 1.67018,-0.53009 3.61106,-0.0516 5.04153,1.24299 1.27924,1.15769 2.95064,2.1049 3.71423,2.1049 0.76359,0 2.08999,0.84543 2.94756,1.87873 1.21547,1.46455 1.13646,2.12117 -0.35835,2.97839 -1.05466,0.6048 -2.48355,3.18451 -3.1753,5.73269 -1.84927,6.81205 -1.68274,34.78962 0.2797,46.99227 1.81756,11.30175 1.62188,13.86144 -0.61075,7.98918 z"
       id="path1537"
       transform="scale(0.26458333)" />
    <path
       style="fill:#ff6600;stroke-width:1.32373"
       d="m 450.29411,470.45085 c -7.69093,-7.69093 -5.05925,-13.23943 6.95436,-14.66227 l 7.04563,-0.83445 -2.19536,3.35053 c -1.81103,2.76399 -1.91885,3.9574 -0.61589,6.81707 1.33277,2.92512 1.20449,3.88086 -0.82132,6.11936 -3.22943,3.56848 -6.23802,3.33916 -10.36742,-0.79024 z"
       id="path1539"
       transform="scale(0.26458333)" />
    <path
       style="fill:#ff6600;stroke-width:1.32373"
       d="m 341.1021,549.76993 c -17.05566,-8.40486 -26.50961,-28.59785 -19.72018,-42.12099 0.73104,-1.4561 3.72464,-4.88124 6.65243,-7.61143 4.99469,-4.65758 5.84279,-4.96397 13.74027,-4.96397 14.46533,0 32.5796,11.01077 30.24021,18.38153 -1.11577,3.51548 -17.12519,9.02384 -29.83165,10.26417 -10.74771,1.04913 -11.91353,1.56532 -11.91353,5.27498 0,4.62993 7.0469,13.22283 13.57508,16.55326 4.10625,2.09485 6.65646,2.52087 11.10078,1.8544 6.94666,-1.04172 7.43297,0.0609 1.17931,2.67384 -5.88492,2.45887 -9.56448,2.38398 -15.02272,-0.30579 z m 10.91745,-38.24511 c 7.06384,-1.77291 0.88319,-8.45243 -7.85078,-8.48446 -4.63295,-0.017 -12.5754,4.42177 -12.5754,7.02796 0,2.01259 14.1815,3.02381 20.42618,1.4565 z"
       id="path1541"
       transform="scale(0.26458333)" />
  </g>
  <g
     inkscape:groupmode="layer"
     id="layer3"
     inkscape:label="Capa 3">
    <text
       xml:space="preserve"
       style="font-style:normal;font-variant:normal;font-weight:normal;font-stretch:normal;font-size:19.4284px;font-family:Chiller;-inkscape-font-specification:Chiller;display:inline;fill:#d40000;stroke-width:0.101189"
       x="43.363857"
       y="202.0618"
       id="text1774"
       transform="scale(1.2032319,0.83109498)"><tspan
         sodipodi:role="line"
         id="tspan1772"
         style="fill:#d40000;stroke-width:0.101189"
         x="43.363857"
         y="202.0618">FourSeagulls</tspan></text>
  </g>
</svg>
